# xmcd
#
# Track frame offsets:
#	150
#	15155
#	31360
#	47930
#	61727
#	76754
#	91122
#	107498
#	123731
#	138947
#	155693
#
# Disc length: 2314 seconds
#
# Revision: 0
# Processed by: cddbd v1.5.2PL0 Copyright (c) Steve Scherf et al.
# Submitted via: EasyCDDAExtractor 16.0.0.1
#
DISCID=7d09080b
DTITLE=Sini Sabotage - 22 m≤
DYEAR=2013
DGENRE=
TTITLE0=LEvikset repee feat Villegalle
TTITLE1=Miks
TTITLE2=Luotolle on uus musta
TTITLE3=Mun Heinii feat Kube
TTITLE4=Mit‰ pit‰is tehd‰ feat Asa
TTITLE5=Mun Planeetta
TTITLE6=Henkarii per‰‰n feat Goucci
TTITLE7=Lambada
TTITLE8=Sun Ralli feat H‰t‰-Miikka
TTITLE9=Tunne mun liikkeet
TTITLE10=Kukaan ei saa tiet‰‰ feat Kari Tapiiri
EXTD=
EXTT0=
EXTT1=
EXTT2=
EXTT3=
EXTT4=
EXTT5=
EXTT6=
EXTT7=
EXTT8=
EXTT9=
EXTT10=
PLAYORDER=
